<svg xmlns="http://www.w3.org/2000/svg" viewBox="0 0 1200 750" width="1200" height="750" role="img" aria-label="Abstract neural network representing data science and AI">
<defs>
<linearGradient id="bg" x1="0" y1="0" x2="1" y2="1">
<stop offset="0" stop-color="#0e151e"/>
<stop offset="0.55" stop-color="#16202d"/>
<stop offset="1" stop-color="#1d2a3a"/>
</linearGradient>
<radialGradient id="glow" cx="0.5" cy="0.5" r="0.5">
<stop offset="0" stop-color="rgba(187,57,44,0.55)"/>
<stop offset="1" stop-color="rgba(187,57,44,0)"/>
</radialGradient>
</defs>
<rect width="1200" height="750" fill="url(#bg)"/>
<g><line x1="140.0" y1="98.0" x2="370.4" y2="84.7" stroke="rgba(187,57,44,0.28)" stroke-width="1.4"/><line x1="140.0" y1="98.0" x2="360.0" y2="201.5" stroke="rgba(214,222,232,0.10)" stroke-width="1"/><line x1="140.0" y1="98.0" x2="372.2" y2="325.8" stroke="rgba(214,222,232,0.10)" stroke-width="1"/><line x1="140.0" y1="98.0" x2="379.4" y2="426.6" stroke="rgba(214,222,232,0.10)" stroke-width="1"/><line x1="140.0" y1="98.0" x2="365.4" y2="543.7" stroke="rgba(214,222,232,0.10)" stroke-width="1"/><line x1="140.0" y1="98.0" x2="361.8" y2="667.8" stroke="rgba(187,57,44,0.28)" stroke-width="1.4"/><line x1="149.9" y1="276.0" x2="370.4" y2="84.7" stroke="rgba(214,222,232,0.10)" stroke-width="1"/><line x1="149.9" y1="276.0" x2="360.0" y2="201.5" stroke="rgba(214,222,232,0.10)" stroke-width="1"/><line x1="149.9" y1="276.0" x2="372.2" y2="325.8" stroke="rgba(214,222,232,0.10)" stroke-width="1"/><line x1="149.9" y1="276.0" x2="379.4" y2="426.6" stroke="rgba(214,222,232,0.10)" stroke-width="1"/><line x1="149.9" y1="276.0" x2="365.4" y2="543.7" stroke="rgba(187,57,44,0.28)" stroke-width="1.4"/><line x1="149.9" y1="276.0" x2="361.8" y2="667.8" stroke="rgba(214,222,232,0.10)" stroke-width="1"/><line x1="137.4" y1="466.1" x2="370.4" y2="84.7" stroke="rgba(214,222,232,0.10)" stroke-width="1"/><line x1="137.4" y1="466.1" x2="360.0" y2="201.5" stroke="rgba(214,222,232,0.10)" stroke-width="1"/><line x1="137.4" y1="466.1" x2="372.2" y2="325.8" stroke="rgba(214,222,232,0.10)" stroke-width="1"/><line x1="137.4" y1="466.1" x2="379.4" y2="426.6" stroke="rgba(187,57,44,0.28)" stroke-width="1.4"/><line x1="137.4" y1="466.1" x2="365.4" y2="543.7" stroke="rgba(214,222,232,0.10)" stroke-width="1"/><line x1="137.4" y1="466.1" x2="361.8" y2="667.8" stroke="rgba(214,222,232,0.10)" stroke-width="1"/><line x1="130.7" y1="668.0" x2="370.4" y2="84.7" stroke="rgba(214,222,232,0.10)" stroke-width="1"/><line x1="130.7" y1="668.0" x2="360.0" y2="201.5" stroke="rgba(214,222,232,0.10)" stroke-width="1"/><line x1="130.7" y1="668.0" x2="372.2" y2="325.8" stroke="rgba(187,57,44,0.28)" stroke-width="1.4"/><line x1="130.7" y1="668.0" x2="379.4" y2="426.6" stroke="rgba(214,222,232,0.10)" stroke-width="1"/><line x1="130.7" y1="668.0" x2="365.4" y2="543.7" stroke="rgba(214,222,232,0.10)" stroke-width="1"/><line x1="130.7" y1="668.0" x2="361.8" y2="667.8" stroke="rgba(214,222,232,0.10)" stroke-width="1"/><line x1="370.4" y1="84.7" x2="599.2" y2="89.1" stroke="rgba(214,222,232,0.10)" stroke-width="1"/><line x1="370.4" y1="84.7" x2="610.0" y2="178.7" stroke="rgba(214,222,232,0.10)" stroke-width="1"/><line x1="370.4" y1="84.7" x2="598.3" y2="246.4" stroke="rgba(214,222,232,0.10)" stroke-width="1"/><line x1="370.4" y1="84.7" x2="590.5" y2="333.5" stroke="rgba(214,222,232,0.10)" stroke-width="1"/><line x1="370.4" y1="84.7" x2="604.2" y2="423.0" stroke="rgba(187,57,44,0.28)" stroke-width="1.4"/><line x1="370.4" y1="84.7" x2="608.5" y2="490.6" stroke="rgba(214,222,232,0.10)" stroke-width="1"/><line x1="370.4" y1="84.7" x2="593.6" y2="577.9" stroke="rgba(214,222,232,0.10)" stroke-width="1"/><line x1="370.4" y1="84.7" x2="593.2" y2="667.2" stroke="rgba(214,222,232,0.10)" stroke-width="1"/><line x1="360.0" y1="201.5" x2="599.2" y2="89.1" stroke="rgba(214,222,232,0.10)" stroke-width="1"/><line x1="360.0" y1="201.5" x2="610.0" y2="178.7" stroke="rgba(214,222,232,0.10)" stroke-width="1"/><line x1="360.0" y1="201.5" x2="598.3" y2="246.4" stroke="rgba(214,222,232,0.10)" stroke-width="1"/><line x1="360.0" y1="201.5" x2="590.5" y2="333.5" stroke="rgba(187,57,44,0.28)" stroke-width="1.4"/><line x1="360.0" y1="201.5" x2="604.2" y2="423.0" stroke="rgba(214,222,232,0.10)" stroke-width="1"/><line x1="360.0" y1="201.5" x2="608.5" y2="490.6" stroke="rgba(214,222,232,0.10)" stroke-width="1"/><line x1="360.0" y1="201.5" x2="593.6" y2="577.9" stroke="rgba(214,222,232,0.10)" stroke-width="1"/><line x1="360.0" y1="201.5" x2="593.2" y2="667.2" stroke="rgba(214,222,232,0.10)" stroke-width="1"/><line x1="372.2" y1="325.8" x2="599.2" y2="89.1" stroke="rgba(214,222,232,0.10)" stroke-width="1"/><line x1="372.2" y1="325.8" x2="610.0" y2="178.7" stroke="rgba(214,222,232,0.10)" stroke-width="1"/><line x1="372.2" y1="325.8" x2="598.3" y2="246.4" stroke="rgba(187,57,44,0.28)" stroke-width="1.4"/><line x1="372.2" y1="325.8" x2="590.5" y2="333.5" stroke="rgba(214,222,232,0.10)" stroke-width="1"/><line x1="372.2" y1="325.8" x2="604.2" y2="423.0" stroke="rgba(214,222,232,0.10)" stroke-width="1"/><line x1="372.2" y1="325.8" x2="608.5" y2="490.6" stroke="rgba(214,222,232,0.10)" stroke-width="1"/><line x1="372.2" y1="325.8" x2="593.6" y2="577.9" stroke="rgba(214,222,232,0.10)" stroke-width="1"/><line x1="372.2" y1="325.8" x2="593.2" y2="667.2" stroke="rgba(187,57,44,0.28)" stroke-width="1.4"/><line x1="379.4" y1="426.6" x2="599.2" y2="89.1" stroke="rgba(214,222,232,0.10)" stroke-width="1"/><line x1="379.4" y1="426.6" x2="610.0" y2="178.7" stroke="rgba(187,57,44,0.28)" stroke-width="1.4"/><line x1="379.4" y1="426.6" x2="598.3" y2="246.4" stroke="rgba(214,222,232,0.10)" stroke-width="1"/><line x1="379.4" y1="426.6" x2="590.5" y2="333.5" stroke="rgba(214,222,232,0.10)" stroke-width="1"/><line x1="379.4" y1="426.6" x2="604.2" y2="423.0" stroke="rgba(214,222,232,0.10)" stroke-width="1"/><line x1="379.4" y1="426.6" x2="608.5" y2="490.6" stroke="rgba(214,222,232,0.10)" stroke-width="1"/><line x1="379.4" y1="426.6" x2="593.6" y2="577.9" stroke="rgba(187,57,44,0.28)" stroke-width="1.4"/><line x1="379.4" y1="426.6" x2="593.2" y2="667.2" stroke="rgba(214,222,232,0.10)" stroke-width="1"/><line x1="365.4" y1="543.7" x2="599.2" y2="89.1" stroke="rgba(187,57,44,0.28)" stroke-width="1.4"/><line x1="365.4" y1="543.7" x2="610.0" y2="178.7" stroke="rgba(214,222,232,0.10)" stroke-width="1"/><line x1="365.4" y1="543.7" x2="598.3" y2="246.4" stroke="rgba(214,222,232,0.10)" stroke-width="1"/><line x1="365.4" y1="543.7" x2="590.5" y2="333.5" stroke="rgba(214,222,232,0.10)" stroke-width="1"/><line x1="365.4" y1="543.7" x2="604.2" y2="423.0" stroke="rgba(214,222,232,0.10)" stroke-width="1"/><line x1="365.4" y1="543.7" x2="608.5" y2="490.6" stroke="rgba(187,57,44,0.28)" stroke-width="1.4"/><line x1="365.4" y1="543.7" x2="593.6" y2="577.9" stroke="rgba(214,222,232,0.10)" stroke-width="1"/><line x1="365.4" y1="543.7" x2="593.2" y2="667.2" stroke="rgba(214,222,232,0.10)" stroke-width="1"/><line x1="361.8" y1="667.8" x2="599.2" y2="89.1" stroke="rgba(214,222,232,0.10)" stroke-width="1"/><line x1="361.8" y1="667.8" x2="610.0" y2="178.7" stroke="rgba(214,222,232,0.10)" stroke-width="1"/><line x1="361.8" y1="667.8" x2="598.3" y2="246.4" stroke="rgba(214,222,232,0.10)" stroke-width="1"/><line x1="361.8" y1="667.8" x2="590.5" y2="333.5" stroke="rgba(214,222,232,0.10)" stroke-width="1"/><line x1="361.8" y1="667.8" x2="604.2" y2="423.0" stroke="rgba(187,57,44,0.28)" stroke-width="1.4"/><line x1="361.8" y1="667.8" x2="608.5" y2="490.6" stroke="rgba(214,222,232,0.10)" stroke-width="1"/><line x1="361.8" y1="667.8" x2="593.6" y2="577.9" stroke="rgba(214,222,232,0.10)" stroke-width="1"/><line x1="361.8" y1="667.8" x2="593.2" y2="667.2" stroke="rgba(214,222,232,0.10)" stroke-width="1"/><line x1="599.2" y1="89.1" x2="831.2" y2="96.5" stroke="rgba(214,222,232,0.10)" stroke-width="1"/><line x1="599.2" y1="89.1" x2="820.0" y2="196.7" stroke="rgba(214,222,232,0.10)" stroke-width="1"/><line x1="599.2" y1="89.1" x2="831.3" y2="318.8" stroke="rgba(214,222,232,0.10)" stroke-width="1"/><line x1="599.2" y1="89.1" x2="839.7" y2="438.4" stroke="rgba(187,57,44,0.28)" stroke-width="1.4"/><line x1="599.2" y1="89.1" x2="826.2" y2="538.7" stroke="rgba(214,222,232,0.10)" stroke-width="1"/><line x1="599.2" y1="89.1" x2="821.3" y2="661.0" stroke="rgba(214,222,232,0.10)" stroke-width="1"/><line x1="610.0" y1="178.7" x2="831.2" y2="96.5" stroke="rgba(214,222,232,0.10)" stroke-width="1"/><line x1="610.0" y1="178.7" x2="820.0" y2="196.7" stroke="rgba(214,222,232,0.10)" stroke-width="1"/><line x1="610.0" y1="178.7" x2="831.3" y2="318.8" stroke="rgba(187,57,44,0.28)" stroke-width="1.4"/><line x1="610.0" y1="178.7" x2="839.7" y2="438.4" stroke="rgba(214,222,232,0.10)" stroke-width="1"/><line x1="610.0" y1="178.7" x2="826.2" y2="538.7" stroke="rgba(214,222,232,0.10)" stroke-width="1"/><line x1="610.0" y1="178.7" x2="821.3" y2="661.0" stroke="rgba(214,222,232,0.10)" stroke-width="1"/><line x1="598.3" y1="246.4" x2="831.2" y2="96.5" stroke="rgba(214,222,232,0.10)" stroke-width="1"/><line x1="598.3" y1="246.4" x2="820.0" y2="196.7" stroke="rgba(187,57,44,0.28)" stroke-width="1.4"/><line x1="598.3" y1="246.4" x2="831.3" y2="318.8" stroke="rgba(214,222,232,0.10)" stroke-width="1"/><line x1="598.3" y1="246.4" x2="839.7" y2="438.4" stroke="rgba(214,222,232,0.10)" stroke-width="1"/><line x1="598.3" y1="246.4" x2="826.2" y2="538.7" stroke="rgba(214,222,232,0.10)" stroke-width="1"/><line x1="598.3" y1="246.4" x2="821.3" y2="661.0" stroke="rgba(214,222,232,0.10)" stroke-width="1"/><line x1="590.5" y1="333.5" x2="831.2" y2="96.5" stroke="rgba(187,57,44,0.28)" stroke-width="1.4"/><line x1="590.5" y1="333.5" x2="820.0" y2="196.7" stroke="rgba(214,222,232,0.10)" stroke-width="1"/><line x1="590.5" y1="333.5" x2="831.3" y2="318.8" stroke="rgba(214,222,232,0.10)" stroke-width="1"/><line x1="590.5" y1="333.5" x2="839.7" y2="438.4" stroke="rgba(214,222,232,0.10)" stroke-width="1"/><line x1="590.5" y1="333.5" x2="826.2" y2="538.7" stroke="rgba(214,222,232,0.10)" stroke-width="1"/><line x1="590.5" y1="333.5" x2="821.3" y2="661.0" stroke="rgba(187,57,44,0.28)" stroke-width="1.4"/><line x1="604.2" y1="423.0" x2="831.2" y2="96.5" stroke="rgba(214,222,232,0.10)" stroke-width="1"/><line x1="604.2" y1="423.0" x2="820.0" y2="196.7" stroke="rgba(214,222,232,0.10)" stroke-width="1"/><line x1="604.2" y1="423.0" x2="831.3" y2="318.8" stroke="rgba(214,222,232,0.10)" stroke-width="1"/><line x1="604.2" y1="423.0" x2="839.7" y2="438.4" stroke="rgba(214,222,232,0.10)" stroke-width="1"/><line x1="604.2" y1="423.0" x2="826.2" y2="538.7" stroke="rgba(187,57,44,0.28)" stroke-width="1.4"/><line x1="604.2" y1="423.0" x2="821.3" y2="661.0" stroke="rgba(214,222,232,0.10)" stroke-width="1"/><line x1="608.5" y1="490.6" x2="831.2" y2="96.5" stroke="rgba(214,222,232,0.10)" stroke-width="1"/><line x1="608.5" y1="490.6" x2="820.0" y2="196.7" stroke="rgba(214,222,232,0.10)" stroke-width="1"/><line x1="608.5" y1="490.6" x2="831.3" y2="318.8" stroke="rgba(214,222,232,0.10)" stroke-width="1"/><line x1="608.5" y1="490.6" x2="839.7" y2="438.4" stroke="rgba(187,57,44,0.28)" stroke-width="1.4"/><line x1="608.5" y1="490.6" x2="826.2" y2="538.7" stroke="rgba(214,222,232,0.10)" stroke-width="1"/><line x1="608.5" y1="490.6" x2="821.3" y2="661.0" stroke="rgba(214,222,232,0.10)" stroke-width="1"/><line x1="593.6" y1="577.9" x2="831.2" y2="96.5" stroke="rgba(214,222,232,0.10)" stroke-width="1"/><line x1="593.6" y1="577.9" x2="820.0" y2="196.7" stroke="rgba(214,222,232,0.10)" stroke-width="1"/><line x1="593.6" y1="577.9" x2="831.3" y2="318.8" stroke="rgba(187,57,44,0.28)" stroke-width="1.4"/><line x1="593.6" y1="577.9" x2="839.7" y2="438.4" stroke="rgba(214,222,232,0.10)" stroke-width="1"/><line x1="593.6" y1="577.9" x2="826.2" y2="538.7" stroke="rgba(214,222,232,0.10)" stroke-width="1"/><line x1="593.6" y1="577.9" x2="821.3" y2="661.0" stroke="rgba(214,222,232,0.10)" stroke-width="1"/><line x1="593.2" y1="667.2" x2="831.2" y2="96.5" stroke="rgba(214,222,232,0.10)" stroke-width="1"/><line x1="593.2" y1="667.2" x2="820.0" y2="196.7" stroke="rgba(187,57,44,0.28)" stroke-width="1.4"/><line x1="593.2" y1="667.2" x2="831.3" y2="318.8" stroke="rgba(214,222,232,0.10)" stroke-width="1"/><line x1="593.2" y1="667.2" x2="839.7" y2="438.4" stroke="rgba(214,222,232,0.10)" stroke-width="1"/><line x1="593.2" y1="667.2" x2="826.2" y2="538.7" stroke="rgba(214,222,232,0.10)" stroke-width="1"/><line x1="593.2" y1="667.2" x2="821.3" y2="661.0" stroke="rgba(214,222,232,0.10)" stroke-width="1"/><line x1="831.2" y1="96.5" x2="1058.3" y2="82.2" stroke="rgba(214,222,232,0.10)" stroke-width="1"/><line x1="831.2" y1="96.5" x2="1070.0" y2="377.4" stroke="rgba(214,222,232,0.10)" stroke-width="1"/><line x1="831.2" y1="96.5" x2="1059.1" y2="665.4" stroke="rgba(187,57,44,0.28)" stroke-width="1.4"/><line x1="820.0" y1="196.7" x2="1058.3" y2="82.2" stroke="rgba(214,222,232,0.10)" stroke-width="1"/><line x1="820.0" y1="196.7" x2="1070.0" y2="377.4" stroke="rgba(187,57,44,0.28)" stroke-width="1.4"/><line x1="820.0" y1="196.7" x2="1059.1" y2="665.4" stroke="rgba(214,222,232,0.10)" stroke-width="1"/><line x1="831.3" y1="318.8" x2="1058.3" y2="82.2" stroke="rgba(187,57,44,0.28)" stroke-width="1.4"/><line x1="831.3" y1="318.8" x2="1070.0" y2="377.4" stroke="rgba(214,222,232,0.10)" stroke-width="1"/><line x1="831.3" y1="318.8" x2="1059.1" y2="665.4" stroke="rgba(214,222,232,0.10)" stroke-width="1"/><line x1="839.7" y1="438.4" x2="1058.3" y2="82.2" stroke="rgba(214,222,232,0.10)" stroke-width="1"/><line x1="839.7" y1="438.4" x2="1070.0" y2="377.4" stroke="rgba(214,222,232,0.10)" stroke-width="1"/><line x1="839.7" y1="438.4" x2="1059.1" y2="665.4" stroke="rgba(214,222,232,0.10)" stroke-width="1"/><line x1="826.2" y1="538.7" x2="1058.3" y2="82.2" stroke="rgba(214,222,232,0.10)" stroke-width="1"/><line x1="826.2" y1="538.7" x2="1070.0" y2="377.4" stroke="rgba(214,222,232,0.10)" stroke-width="1"/><line x1="826.2" y1="538.7" x2="1059.1" y2="665.4" stroke="rgba(214,222,232,0.10)" stroke-width="1"/><line x1="821.3" y1="661.0" x2="1058.3" y2="82.2" stroke="rgba(214,222,232,0.10)" stroke-width="1"/><line x1="821.3" y1="661.0" x2="1070.0" y2="377.4" stroke="rgba(214,222,232,0.10)" stroke-width="1"/><line x1="821.3" y1="661.0" x2="1059.1" y2="665.4" stroke="rgba(187,57,44,0.28)" stroke-width="1.4"/></g>
<g><circle cx="140.0" cy="98.0" r="17.0" fill="url(#glow)"/><circle cx="140.0" cy="98.0" r="9" fill="#bb392c" stroke="rgba(255,255,255,0.55)" stroke-width="1.6"/><circle cx="149.9" cy="276.0" r="6.5" fill="#7d94ad" stroke="rgba(255,255,255,0.55)" stroke-width="1"/><circle cx="137.4" cy="466.1" r="6.5" fill="#7d94ad" stroke="rgba(255,255,255,0.55)" stroke-width="1"/><circle cx="130.7" cy="668.0" r="6.5" fill="#7d94ad" stroke="rgba(255,255,255,0.55)" stroke-width="1"/><circle cx="370.4" cy="84.7" r="17.0" fill="url(#glow)"/><circle cx="370.4" cy="84.7" r="9" fill="#bb392c" stroke="rgba(255,255,255,0.55)" stroke-width="1.6"/><circle cx="360.0" cy="201.5" r="6.5" fill="#7d94ad" stroke="rgba(255,255,255,0.55)" stroke-width="1"/><circle cx="372.2" cy="325.8" r="6.5" fill="#7d94ad" stroke="rgba(255,255,255,0.55)" stroke-width="1"/><circle cx="379.4" cy="426.6" r="6.5" fill="#7d94ad" stroke="rgba(255,255,255,0.55)" stroke-width="1"/><circle cx="365.4" cy="543.7" r="17.0" fill="url(#glow)"/><circle cx="365.4" cy="543.7" r="9" fill="#bb392c" stroke="rgba(255,255,255,0.55)" stroke-width="1.6"/><circle cx="361.8" cy="667.8" r="6.5" fill="#7d94ad" stroke="rgba(255,255,255,0.55)" stroke-width="1"/><circle cx="599.2" cy="89.1" r="6.5" fill="#7d94ad" stroke="rgba(255,255,255,0.55)" stroke-width="1"/><circle cx="610.0" cy="178.7" r="6.5" fill="#7d94ad" stroke="rgba(255,255,255,0.55)" stroke-width="1"/><circle cx="598.3" cy="246.4" r="17.0" fill="url(#glow)"/><circle cx="598.3" cy="246.4" r="9" fill="#bb392c" stroke="rgba(255,255,255,0.55)" stroke-width="1.6"/><circle cx="590.5" cy="333.5" r="6.5" fill="#7d94ad" stroke="rgba(255,255,255,0.55)" stroke-width="1"/><circle cx="604.2" cy="423.0" r="6.5" fill="#7d94ad" stroke="rgba(255,255,255,0.55)" stroke-width="1"/><circle cx="608.5" cy="490.6" r="6.5" fill="#7d94ad" stroke="rgba(255,255,255,0.55)" stroke-width="1"/><circle cx="593.6" cy="577.9" r="17.0" fill="url(#glow)"/><circle cx="593.6" cy="577.9" r="9" fill="#bb392c" stroke="rgba(255,255,255,0.55)" stroke-width="1.6"/><circle cx="593.2" cy="667.2" r="6.5" fill="#7d94ad" stroke="rgba(255,255,255,0.55)" stroke-width="1"/><circle cx="831.2" cy="96.5" r="6.5" fill="#7d94ad" stroke="rgba(255,255,255,0.55)" stroke-width="1"/><circle cx="820.0" cy="196.7" r="6.5" fill="#7d94ad" stroke="rgba(255,255,255,0.55)" stroke-width="1"/><circle cx="831.3" cy="318.8" r="17.0" fill="url(#glow)"/><circle cx="831.3" cy="318.8" r="9" fill="#bb392c" stroke="rgba(255,255,255,0.55)" stroke-width="1.6"/><circle cx="839.7" cy="438.4" r="6.5" fill="#7d94ad" stroke="rgba(255,255,255,0.55)" stroke-width="1"/><circle cx="826.2" cy="538.7" r="6.5" fill="#7d94ad" stroke="rgba(255,255,255,0.55)" stroke-width="1"/><circle cx="821.3" cy="661.0" r="6.5" fill="#7d94ad" stroke="rgba(255,255,255,0.55)" stroke-width="1"/><circle cx="1058.3" cy="82.2" r="17.0" fill="url(#glow)"/><circle cx="1058.3" cy="82.2" r="9" fill="#bb392c" stroke="rgba(255,255,255,0.55)" stroke-width="1.6"/><circle cx="1070.0" cy="377.4" r="6.5" fill="#7d94ad" stroke="rgba(255,255,255,0.55)" stroke-width="1"/><circle cx="1059.1" cy="665.4" r="6.5" fill="#7d94ad" stroke="rgba(255,255,255,0.55)" stroke-width="1"/></g>
</svg>